<svg width="119" height="60" viewBox="0 0 119 60" fill="none" xmlns="http://www.w3.org/2000/svg">
<rect x="1.0929" y="1.46387" width="57.0488" height="57.0892" transform="rotate(0.216984 1.0929 1.46387)" fill="#FFCA34"/>
<path d="M17.616 49.176C16.656 49.176 15.744 48.92 14.88 48.408C14.048 47.896 13.632 47.24 13.632 46.44C13.632 46.024 13.696 45.576 13.824 45.096C13.984 44.616 14.128 44.168 14.256 43.752C15.248 40.712 16.176 37.88 17.04 35.256C17.904 32.6 18.768 30.056 19.632 27.624C20.528 25.16 21.456 22.696 22.416 20.232C23.408 17.768 24.512 15.192 25.728 12.504C23.904 12.92 22.464 13.448 21.408 14.088C20.352 14.696 19.648 15 19.296 15C19.136 15 18.896 14.888 18.576 14.664C18.288 14.44 18.032 14.184 17.808 13.896C17.584 13.608 17.472 13.352 17.472 13.128C18.368 12.744 19.408 12.344 20.592 11.928C21.808 11.512 23.12 11.16 24.528 10.872C25.936 10.584 27.344 10.44 28.752 10.44C30.256 10.44 31.792 10.648 33.36 11.064C34.928 11.448 36.368 12.04 37.68 12.84C39.024 13.608 40.096 14.584 40.896 15.768C41.728 16.92 42.144 18.28 42.144 19.848C42.144 21.544 41.76 23 40.992 24.216C40.224 25.432 39.2 26.456 37.92 27.288C36.672 28.12 35.312 28.792 33.84 29.304C32.368 29.816 30.896 30.2 29.424 30.456C27.984 30.712 26.688 30.888 25.536 30.984C24.384 31.08 23.52 31.128 22.944 31.128H22.656C21.76 34.296 20.88 37.464 20.016 40.632C19.152 43.768 18.352 46.616 17.616 49.176ZM23.088 29.64C24.88 29.512 26.672 29.208 28.464 28.728C30.256 28.248 31.872 27.592 33.312 26.76C34.784 25.896 35.952 24.824 36.816 23.544C37.712 22.264 38.16 20.776 38.16 19.08C38.16 17.48 37.728 16.184 36.864 15.192C36.032 14.2 34.944 13.448 33.6 12.936C32.288 12.424 30.896 12.152 29.424 12.12C28.272 14.36 27.168 17.016 26.112 20.088C25.056 23.128 24.048 26.312 23.088 29.64ZM38.313 47.256C37.257 47.256 36.345 46.904 35.577 46.2C34.777 45.496 34.377 44.44 34.377 43.032C34.377 41.912 34.633 40.696 35.145 39.384C35.657 38.072 36.361 36.776 37.257 35.496C38.153 34.216 39.177 33.064 40.329 32.04C41.481 30.984 42.713 30.136 44.025 29.496C45.337 28.856 46.649 28.536 47.961 28.536C49.337 28.536 50.505 28.888 51.465 29.592C52.425 30.296 52.905 31.224 52.905 32.376C52.905 33.24 52.601 33.864 51.993 34.248C51.385 34.632 50.665 34.744 49.833 34.584C49.897 34.296 49.945 34.008 49.977 33.72C50.041 33.432 50.073 33.128 50.073 32.808C50.073 32.168 49.945 31.592 49.689 31.08C49.433 30.568 48.889 30.312 48.057 30.312C47.161 30.312 46.249 30.616 45.321 31.224C44.393 31.832 43.497 32.632 42.633 33.624C41.801 34.584 41.049 35.656 40.377 36.84C39.705 37.992 39.177 39.128 38.793 40.248C38.409 41.368 38.217 42.376 38.217 43.272C38.217 44.296 38.585 44.808 39.321 44.808C40.057 44.808 40.873 44.456 41.769 43.752C42.665 43.016 43.561 42.104 44.457 41.016C45.385 39.928 46.265 38.824 47.097 37.704C47.929 36.552 48.649 35.576 49.257 34.776C49.353 34.616 49.481 34.536 49.641 34.536C49.769 34.568 50.009 34.648 50.361 34.776C50.745 34.872 51.097 35.032 51.417 35.256C51.737 35.48 51.897 35.768 51.897 36.12C51.897 36.536 51.673 37.112 51.225 37.848C50.777 38.552 50.313 39.32 49.833 40.152C49.385 40.984 49.161 41.752 49.161 42.456C49.161 42.872 49.273 43.272 49.497 43.656C49.721 44.008 50.089 44.184 50.601 44.184C51.369 44.184 52.441 43.624 53.817 42.504C55.225 41.352 56.649 39.416 58.089 36.696L59.001 37.608C57.817 40.232 56.345 42.36 54.585 43.992C52.825 45.624 51.049 46.44 49.257 46.44C47.945 46.44 46.969 46.024 46.329 45.192C45.689 44.36 45.337 43.464 45.273 42.504V42.264C43.993 43.8 42.809 45.016 41.721 45.912C40.665 46.808 39.529 47.256 38.313 47.256ZM73.1291 45.96C71.8811 45.96 70.9211 45.64 70.2491 45C69.6091 44.392 69.2891 43.608 69.2891 42.648C69.2891 42.008 69.4011 41.336 69.6251 40.632C69.8491 39.896 70.0731 39.16 70.2971 38.424C70.5211 37.688 70.6331 36.984 70.6331 36.312C70.6331 35.608 70.4571 35.128 70.1051 34.872C69.7851 34.584 69.4011 34.44 68.9531 34.44C67.9931 34.44 67.0011 34.84 65.9771 35.64C64.9851 36.408 64.0091 37.384 63.0491 38.568C62.1211 39.752 61.2411 40.984 60.4091 42.264C59.5771 43.544 58.8571 44.696 58.2491 45.72C57.6411 45.72 57.0651 45.608 56.5211 45.384C55.9771 45.192 55.5131 44.84 55.1291 44.328C55.1611 44.168 55.3531 43.688 55.7051 42.888C56.0251 42.056 56.3931 41.08 56.8091 39.96C57.2251 38.808 57.5931 37.608 57.9131 36.36C58.2331 35.112 58.3931 33.976 58.3931 32.952C58.6171 32.696 58.9531 32.44 59.4011 32.184C59.8811 31.928 60.3771 31.8 60.8891 31.8C62.0091 31.8 62.5691 32.28 62.5691 33.24C62.5691 34.104 62.2971 35.528 61.7531 37.512C62.5851 36.392 63.4971 35.336 64.4891 34.344C65.4811 33.352 66.5051 32.552 67.5611 31.944C68.6491 31.304 69.7371 30.984 70.8251 30.984C72.2011 30.984 73.2091 31.448 73.8491 32.376C74.5211 33.304 74.8571 34.328 74.8571 35.448C74.8571 36.408 74.6971 37.304 74.3771 38.136C74.0571 38.968 73.7371 39.752 73.4171 40.488C73.1291 41.224 72.9851 41.944 72.9851 42.648C72.9851 43.16 73.0971 43.528 73.3211 43.752C73.5771 43.944 73.8491 44.04 74.1371 44.04C74.9051 44.04 75.7051 43.672 76.5371 42.936C77.3691 42.2 78.1531 41.272 78.8891 40.152C79.6571 39 80.3291 37.848 80.9051 36.696L81.7211 37.368C81.0491 38.936 80.2811 40.376 79.4171 41.688C78.5851 42.968 77.6411 44.008 76.5851 44.808C75.5611 45.576 74.4091 45.96 73.1291 45.96ZM81.8486 46.824C81.1446 46.824 80.6326 46.28 80.3126 45.192C80.0246 44.104 79.8806 42.84 79.8806 41.4C79.8806 39.928 80.1206 38.152 80.6006 36.072C81.1126 33.992 81.7846 31.8 82.6166 29.496C83.4806 27.192 84.4246 24.936 85.4486 22.728C86.5046 20.52 87.5766 18.52 88.6646 16.728C89.7846 14.904 90.8406 13.448 91.8326 12.36C92.8566 11.272 93.7526 10.728 94.5206 10.728C95.1926 10.728 95.7046 11.096 96.0566 11.832C96.4086 12.568 96.5846 13.336 96.5846 14.136C96.5846 15 96.3766 16.072 95.9606 17.352C95.5766 18.6 95.0326 19.944 94.3286 21.384C93.6246 22.824 92.7926 24.248 91.8326 25.656C90.9046 27.032 89.8806 28.296 88.7606 29.448C87.6726 30.6 86.5366 31.528 85.3526 32.232C84.7446 33.896 84.3126 35.384 84.0566 36.696C83.8326 37.976 83.7206 39.208 83.7206 40.392C83.7206 40.552 83.7206 40.728 83.7206 40.92C83.7526 41.08 83.7686 41.24 83.7686 41.4C83.8966 41.208 84.1046 40.712 84.3926 39.912C84.6806 39.112 85.0646 38.184 85.5446 37.128C86.0566 36.04 86.6806 34.984 87.4166 33.96C88.1526 32.904 89.0166 32.04 90.0086 31.368C91.0006 30.664 92.1366 30.312 93.4166 30.312C94.5046 30.312 95.3526 30.568 95.9606 31.08C96.5686 31.56 97.0006 32.168 97.2566 32.904C97.5126 33.608 97.6406 34.328 97.6406 35.064C97.6406 36.088 97.4646 37.048 97.1126 37.944C96.7926 38.84 96.4566 39.688 96.1046 40.488C95.7846 41.256 95.6246 41.992 95.6246 42.696C95.6246 43.272 95.7526 43.672 96.0086 43.896C96.2646 44.12 96.5686 44.232 96.9206 44.232C97.6246 44.232 98.4406 43.88 99.3686 43.176C100.329 42.472 101.273 41.544 102.201 40.392C103.161 39.208 103.977 37.912 104.649 36.504L105.417 37.32C104.681 38.92 103.817 40.392 102.825 41.736C101.833 43.08 100.745 44.152 99.5606 44.952C98.3766 45.752 97.0966 46.152 95.7206 46.152C94.5046 46.152 93.5766 45.832 92.9366 45.192C92.2966 44.552 91.9766 43.752 91.9766 42.792C91.9766 42.12 92.0886 41.384 92.3126 40.584C92.5686 39.752 92.8086 38.92 93.0326 38.088C93.2566 37.256 93.3686 36.504 93.3686 35.832C93.3686 35.064 93.1926 34.536 92.8406 34.248C92.5206 33.96 92.1206 33.816 91.6406 33.816C90.8406 33.816 90.1206 34.136 89.4806 34.776C88.8406 35.384 88.2646 36.184 87.7526 37.176C87.2406 38.168 86.7606 39.224 86.3126 40.344C85.8646 41.432 85.4166 42.472 84.9686 43.464C84.5206 44.456 84.0406 45.256 83.5286 45.864C83.0486 46.504 82.4886 46.824 81.8486 46.824ZM86.3606 29.16C87.3846 28.232 88.3606 27.112 89.2886 25.8C90.2486 24.456 91.0966 23.096 91.8326 21.72C92.5686 20.344 93.1446 19.096 93.5606 17.976C94.0086 16.824 94.2486 15.96 94.2806 15.384V15.24C94.0886 15.24 93.6726 15.64 93.0326 16.44C92.4246 17.208 91.7046 18.264 90.8726 19.608C90.0726 20.92 89.2566 22.408 88.4246 24.072C87.6246 25.736 86.9366 27.432 86.3606 29.16Z" fill="#363636"/>
</svg>
